# xmcd
#
# Track frame offsets:
#	150
#	18003
#	36959
#	54551
#	74380
#	88781
#	109774
#	124198
#	142519
#	162011
#	181539
#	201629
#	221599
#	244009
#	261819
#	282908
#	296958
#	316449
#
# Disc length: 4486 seconds
#
# Revision: 1
# Processed by: cddbd v1.4PL0 Copyright (c) Steve Scherf et al.
# Submitted via: EasyCDDAExtractor 5.0.6
#
DISCID=08118412
DTITLE=许慧欣 - 盗版 - 孤单芭蕾
DYEAR=2002
DGENRE=Pop
TTITLE0=孤单芭蕾
TTITLE1=忽然很想你
TTITLE2=学会
TTITLE3=特别来宾
TTITLE4=keep it up
TTITLE5=大手拉小手
TTITLE6=鱼儿水中游
TTITLE7=lay your love
TTITLE8=幸福的味道
TTITLE9=连接
TTITLE10=夜的诗人
TTITLE11=再一次也好（Romantic浪漫版）
TTITLE12=挥霍爱人的耐性
TTITLE13=留在谁的心里
TTITLE14=缓慢的爱
TTITLE15=再一次也好（Acoustic纯情版）
TTITLE16=东京铁塔的幸福
TTITLE17=对你而言
EXTD=
EXTT0=
EXTT1=
EXTT2=
EXTT3=
EXTT4=
EXTT5=
EXTT6=
EXTT7=
EXTT8=
EXTT9=
EXTT10=
EXTT11=
EXTT12=
EXTT13=
EXTT14=
EXTT15=
EXTT16=
EXTT17=
PLAYORDER=
